<?xml version="1.0" encoding="UTF-8"?>
<svg id="_图层_1" data-name="图层 1" xmlns="http://www.w3.org/2000/svg" viewBox="0 0 1197.19 193.45">
  <defs>
    <style>
      .cls-1 {
        fill: #2e513e;
      }
    </style>
  </defs>
  <path class="cls-1" d="M68.36,6.11v170.32h48c3,0,5.14.56,6.4,1.67,1.26,1.12,1.89,2.6,1.89,4.44,0,1.75-.63,3.2-1.89,4.36-1.26,1.16-3.4,1.75-6.4,1.75H8.15c-2.91,0-5-.58-6.25-1.75-1.26-1.16-1.89-2.62-1.89-4.36,0-1.84.63-3.32,1.89-4.44,1.26-1.11,3.35-1.67,6.25-1.67h48V18.47H20.94c-2.91,0-5.02-.58-6.33-1.75s-1.96-2.67-1.96-4.51c0-1.75.63-3.2,1.89-4.36,1.26-1.16,3.39-1.75,6.4-1.75h47.42Z"/>
  <path class="cls-1" d="M247.41,62.69v113.74h48c3,0,5.14.56,6.4,1.67,1.26,1.12,1.89,2.6,1.89,4.44,0,1.75-.63,3.2-1.89,4.36-1.26,1.16-3.4,1.75-6.4,1.75h-108.21c-2.91,0-5-.58-6.25-1.75-1.26-1.16-1.89-2.62-1.89-4.36,0-1.84.63-3.32,1.89-4.44,1.26-1.11,3.35-1.67,6.25-1.67h48v-101.38h-35.63c-2.91,0-5.02-.58-6.33-1.75s-1.96-2.62-1.96-4.36c0-1.84.63-3.35,1.89-4.51,1.26-1.16,3.39-1.75,6.4-1.75h47.85ZM246.97,0v31.56h-18.04V0h18.04Z"/>
  <path class="cls-1" d="M364.06,62.69v12.36c10.38-11.15,20.8-16.73,31.27-16.73,6.3,0,11.83,1.67,16.58,5.02,4.75,3.35,8.73,8.41,11.93,15.2,5.43-6.79,10.93-11.85,16.51-15.2,5.58-3.35,11.18-5.02,16.8-5.02,8.82,0,15.85,2.86,21.09,8.58,6.88,7.37,10.33,15.42,10.33,24.14v85.38h10.33c2.91,0,4.99.56,6.25,1.67,1.26,1.12,1.89,2.6,1.89,4.44,0,1.75-.63,3.2-1.89,4.36-1.26,1.16-3.35,1.75-6.25,1.75h-22.54v-96.43c0-6.2-1.89-11.34-5.67-15.42s-8.15-6.11-13.09-6.11c-4.46,0-9.16,1.67-14.11,5.02-4.95,3.35-10.57,9.91-16.87,19.71v81.01h10.18c2.91,0,4.99.56,6.25,1.67,1.26,1.12,1.89,2.6,1.89,4.44,0,1.75-.63,3.2-1.89,4.36-1.26,1.16-3.35,1.75-6.25,1.75h-22.54v-95.56c0-6.49-1.92-11.85-5.75-16.07-3.83-4.22-8.12-6.33-12.87-6.33-4.36,0-8.68,1.41-12.94,4.22-5.91,3.98-12.12,10.81-18.62,20.51v81.01h10.33c2.91,0,4.99.56,6.25,1.67,1.26,1.12,1.89,2.6,1.89,4.44,0,1.75-.63,3.2-1.89,4.36-1.26,1.16-3.35,1.75-6.25,1.75h-32.87c-2.91,0-5-.58-6.25-1.75-1.26-1.16-1.89-2.62-1.89-4.36,0-1.84.63-3.32,1.89-4.44,1.26-1.11,3.35-1.67,6.25-1.67h10.33v-101.38h-10.33c-2.91,0-5-.58-6.25-1.75-1.26-1.16-1.89-2.67-1.89-4.51,0-1.75.63-3.2,1.89-4.36,1.26-1.16,3.35-1.75,6.25-1.75h22.54Z"/>
  <path class="cls-1" d="M604.92,62.69v113.74h48c3,0,5.14.56,6.4,1.67,1.26,1.12,1.89,2.6,1.89,4.44,0,1.75-.63,3.2-1.89,4.36-1.26,1.16-3.4,1.75-6.4,1.75h-108.21c-2.91,0-5-.58-6.25-1.75-1.26-1.16-1.89-2.62-1.89-4.36,0-1.84.63-3.32,1.89-4.44,1.26-1.11,3.35-1.67,6.25-1.67h48v-101.38h-35.64c-2.91,0-5.02-.58-6.33-1.75s-1.96-2.62-1.96-4.36c0-1.84.63-3.35,1.89-4.51,1.26-1.16,3.39-1.75,6.4-1.75h47.85ZM604.48,0v31.56h-18.04V0h18.04Z"/>
  <path class="cls-1" d="M737.71,62.69v18.47c8.53-8.63,16.24-14.59,23.13-17.89,6.88-3.29,14.64-4.95,23.27-4.95,9.31,0,17.79,1.99,25.45,5.96,5.43,2.91,10.35,7.73,14.76,14.47,4.41,6.74,6.62,13.65,6.62,20.73v76.94h10.33c2.91,0,4.99.56,6.25,1.67,1.26,1.12,1.89,2.6,1.89,4.44,0,1.75-.63,3.2-1.89,4.36-1.26,1.16-3.35,1.75-6.25,1.75h-32.73c-3.01,0-5.14-.58-6.4-1.75-1.26-1.16-1.89-2.62-1.89-4.36,0-1.84.63-3.32,1.89-4.44,1.26-1.11,3.39-1.67,6.4-1.67h10.18v-74.91c0-8.63-3.15-15.93-9.45-21.89-6.31-5.96-14.74-8.95-25.31-8.95-8.05,0-15.03,1.62-20.94,4.87-5.91,3.25-14.35,11.32-25.31,24.22v76.65h13.82c2.91,0,4.99.56,6.25,1.67,1.26,1.12,1.89,2.6,1.89,4.44,0,1.75-.63,3.2-1.89,4.36-1.26,1.16-3.35,1.75-6.25,1.75h-39.85c-2.91,0-5-.58-6.25-1.75-1.26-1.16-1.89-2.62-1.89-4.36,0-1.84.63-3.32,1.89-4.44,1.26-1.11,3.35-1.67,6.25-1.67h13.82v-101.38h-10.33c-2.91,0-5-.58-6.25-1.75-1.26-1.16-1.89-2.67-1.89-4.51,0-1.75.63-3.2,1.89-4.36,1.26-1.16,3.35-1.75,6.25-1.75h22.54Z"/>
  <path class="cls-1" d="M991.09,188.65v-17.6c-17.74,14.93-36.7,22.4-56.87,22.4-14.64,0-26.09-3.71-34.33-11.13-8.24-7.42-12.36-16.51-12.36-27.27,0-11.83,5.43-22.16,16.29-30.98,10.86-8.82,26.71-13.24,47.56-13.24,5.62,0,11.73.36,18.33,1.09,6.59.73,13.72,1.87,21.38,3.42v-19.78c0-6.69-3.11-12.51-9.31-17.45-6.21-4.95-15.51-7.42-27.93-7.42-9.51,0-22.84,2.76-40,8.29-3.11.97-5.09,1.45-5.96,1.45-1.55,0-2.89-.58-4-1.75-1.12-1.16-1.67-2.62-1.67-4.36,0-1.65.48-2.96,1.45-3.93,1.36-1.45,6.84-3.44,16.44-5.96,15.13-4.07,26.57-6.11,34.33-6.11,15.42,0,27.44,3.81,36.07,11.42,8.63,7.61,12.94,16.22,12.94,25.82v80.87h16.29c3,0,5.14.56,6.4,1.67,1.26,1.12,1.89,2.6,1.89,4.44,0,1.75-.63,3.2-1.89,4.36-1.26,1.16-3.4,1.75-6.4,1.75h-28.65ZM991.09,127.85c-5.72-1.65-11.78-2.86-18.18-3.64-6.4-.78-13.14-1.16-20.22-1.16-17.74,0-31.61,3.83-41.6,11.49-7.56,5.72-11.34,12.56-11.34,20.51,0,7.37,2.88,13.58,8.65,18.62,5.77,5.04,14.18,7.56,25.24,7.56s20.38-2.11,29.45-6.33c9.07-4.22,18.4-10.93,28-20.14v-26.91Z"/>
  <path class="cls-1" d="M1140.9,6.11v170.32h48c3,0,5.14.56,6.4,1.67,1.26,1.12,1.89,2.6,1.89,4.44,0,1.75-.63,3.2-1.89,4.36-1.26,1.16-3.4,1.75-6.4,1.75h-108.21c-2.91,0-5-.58-6.25-1.75-1.26-1.16-1.89-2.62-1.89-4.36,0-1.84.63-3.32,1.89-4.44,1.26-1.11,3.35-1.67,6.25-1.67h48V18.47h-35.2c-2.91,0-5.02-.58-6.33-1.75s-1.96-2.67-1.96-4.51c0-1.75.63-3.2,1.89-4.36,1.26-1.16,3.39-1.75,6.4-1.75h47.42Z"/>
</svg>